<svg xmlns="http://www.w3.org/2000/svg" viewBox="0 0 297 297"><path d="M295.342 112.368c-4.435-13.649-16.573-22.467-30.923-22.467h-55.59a12.824 12.824 0 01-12.227-8.883l-17.177-52.869C174.989 14.5 162.851 5.681 148.5 5.681s-26.489 8.819-30.924 22.467l-17.177 52.868A12.824 12.824 0 0188.172 89.9h-55.59c-14.351 0-26.488 8.819-30.923 22.467-4.435 13.648.201 27.917 11.811 36.352l44.974 32.676a12.824 12.824 0 014.67 14.374l-17.178 52.868c-4.435 13.648.202 27.918 11.812 36.352 11.611 8.438 26.615 8.438 38.224 0l44.973-32.675a12.826 12.826 0 0115.113 0l44.973 32.675c5.805 4.218 12.459 6.327 19.113 6.327 6.653 0 13.307-2.109 19.112-6.327 11.61-8.435 16.246-22.705 11.812-36.351l-17.178-52.869a12.825 12.825 0 014.671-14.375l44.973-32.675c11.607-8.434 16.243-22.703 11.808-36.351zm-23.366 20.449l-44.972 32.674a32.433 32.433 0 00-11.813 36.353l17.178 52.87c2.128 6.548-1.017 11.718-4.67 14.373-3.651 2.655-9.541 4.048-15.114 0l-44.973-32.675a32.46 32.46 0 00-19.112-6.23 32.466 32.466 0 00-19.112 6.23l-44.973 32.675c-5.571 4.048-11.46 2.653-15.114 0-3.653-2.654-6.798-7.824-4.67-14.374l17.178-52.869a32.43 32.43 0 00-11.813-36.352l-44.973-32.675c-3.152-2.29-4.677-5.215-5.156-8.101a7.413 7.413 0 004.267 1.374 7.375 7.375 0 005.209-2.163 7.399 7.399 0 002.163-5.209 7.42 7.42 0 00-2.163-5.22 7.404 7.404 0 00-3.707-1.993c1.851-1.183 4.152-1.945 6.944-1.945h55.59a32.434 32.434 0 0030.924-22.467l17.177-52.869c2.128-6.549 7.712-8.883 12.227-8.883s10.099 2.334 12.227 8.883l17.177 52.87a32.434 32.434 0 0030.924 22.466h55.59c2.792 0 5.092.762 6.944 1.945a7.47 7.47 0 00-3.714 1.993 7.425 7.425 0 00-2.163 5.22c0 1.936.786 3.833 2.163 5.209s3.273 2.163 5.209 2.163a7.42 7.42 0 004.274-1.374c-.476 2.886-2.001 5.811-5.153 8.101z"/><path d="M148.497 88.984a7.369 7.369 0 007.372-7.372c0-4.069-3.303-7.362-7.372-7.362-4.07 0-7.372 3.293-7.372 7.362a7.368 7.368 0 007.372 7.372zM148.497 111.493a7.374 7.374 0 007.372-7.372 7.369 7.369 0 00-7.372-7.372 7.368 7.368 0 00-7.372 7.372 7.374 7.374 0 007.372 7.372zM148.497 133.993a7.375 7.375 0 007.372-7.372 7.368 7.368 0 00-7.372-7.372 7.367 7.367 0 00-7.372 7.372 7.374 7.374 0 007.372 7.372z"/><circle cx="148.497" cy="36.613" r="7.372"/><circle cx="148.497" cy="59.113" r="7.372"/><path d="M126.017 151.213c.589.148 1.18.217 1.759.217a7.381 7.381 0 007.156-5.623c.963-3.961-1.455-7.952-5.417-8.915-3.951-.964-7.942 1.454-8.905 5.406-.963 3.961 1.455 7.953 5.407 8.915zM105.297 146.141a7.131 7.131 0 001.75.217c3.322 0 6.339-2.261 7.155-5.623.973-3.951-1.454-7.941-5.406-8.915a7.376 7.376 0 00-8.915 5.416 7.365 7.365 0 005.416 8.905zM86.326 141.296a7.386 7.386 0 007.155-5.622c.964-3.962-1.454-7.952-5.416-8.916-3.951-.973-7.942 1.455-8.905 5.406a7.366 7.366 0 005.406 8.916c.59.137 1.18.216 1.76.216zM67.345 121.686c-3.961-.963-7.952 1.455-8.915 5.417-.973 3.951 1.454 7.941 5.406 8.915a7.711 7.711 0 001.759.206 7.368 7.368 0 007.155-5.622 7.376 7.376 0 00-5.405-8.916zM46.615 116.624c-3.962-.973-7.942 1.454-8.916 5.406a7.382 7.382 0 005.417 8.915 7.06 7.06 0 001.749.206 7.368 7.368 0 001.75-14.527zM77.833 250.019a7.397 7.397 0 00-5.209 2.163 7.397 7.397 0 00-2.163 5.209c0 1.936.787 3.843 2.163 5.209a7.4 7.4 0 005.209 2.163 7.397 7.397 0 005.21-2.163 7.398 7.398 0 002.162-5.209 7.396 7.396 0 00-2.162-5.209 7.395 7.395 0 00-5.21-2.163zM105.415 215.125a7.375 7.375 0 00-10.203 2.143c-2.222 3.411-1.258 7.982 2.143 10.203a7.328 7.328 0 004.03 1.199 7.354 7.354 0 006.183-3.341c2.221-3.412 1.257-7.974-2.153-10.204zM93.639 233.171a7.376 7.376 0 00-10.203 2.143c-2.221 3.411-1.268 7.982 2.143 10.203a7.33 7.33 0 004.031 1.199 7.352 7.352 0 006.173-3.341 7.367 7.367 0 00-2.144-10.204zM128.976 179.03a7.377 7.377 0 00-10.203 2.153c-2.232 3.411-1.268 7.972 2.143 10.203a7.378 7.378 0 0010.203-2.142 7.39 7.39 0 00-2.143-10.214zM117.19 197.077c-3.401-2.221-7.971-1.258-10.193 2.143-2.231 3.411-1.268 7.982 2.143 10.213a7.366 7.366 0 0010.203-2.153c2.221-3.41 1.258-7.971-2.153-10.203zM140.752 160.994a7.366 7.366 0 00-10.204 2.143 7.367 7.367 0 002.143 10.204 7.409 7.409 0 004.02 1.199 7.38 7.38 0 006.183-3.342 7.366 7.366 0 00-2.142-10.204zM211.798 257.391c0 1.936.787 3.843 2.153 5.209a7.422 7.422 0 005.219 2.163 7.413 7.413 0 005.21-2.163 7.44 7.44 0 002.162-5.209 7.439 7.439 0 00-2.162-5.209 7.417 7.417 0 00-5.21-2.163 7.418 7.418 0 00-5.219 2.163 7.428 7.428 0 00-2.153 5.209zM203.354 233.171c-3.401 2.222-4.364 6.792-2.142 10.204a7.377 7.377 0 006.183 3.341 7.293 7.293 0 004.02-1.199 7.365 7.365 0 002.143-10.203c-2.222-3.411-6.793-4.365-10.204-2.143zM201.782 217.267c-2.221-3.411-6.792-4.364-10.203-2.143a7.374 7.374 0 00-2.143 10.203 7.354 7.354 0 006.183 3.341 7.315 7.315 0 004.02-1.199c3.411-2.22 4.364-6.791 2.143-10.202zM166.445 163.136a7.354 7.354 0 00-10.193-2.143 7.375 7.375 0 00-2.152 10.203 7.375 7.375 0 0010.203 2.143 7.365 7.365 0 002.142-10.203zM178.231 181.183c-2.232-3.411-6.792-4.374-10.203-2.153-3.411 2.232-4.374 6.803-2.143 10.213a7.359 7.359 0 006.173 3.341 7.408 7.408 0 004.03-1.199c3.4-2.23 4.364-6.791 2.143-10.202zM190.006 199.22c-2.231-3.401-6.792-4.364-10.203-2.143-3.411 2.232-4.374 6.792-2.142 10.203a7.347 7.347 0 006.173 3.352 7.422 7.422 0 004.03-1.199c3.41-2.231 4.363-6.802 2.142-10.213zM229.658 121.686a7.378 7.378 0 00-5.416 8.916 7.377 7.377 0 007.156 5.622c.58 0 1.169-.068 1.76-.206 3.951-.973 6.379-4.964 5.406-8.915a7.368 7.368 0 00-8.906-5.417zM250.378 116.624c-3.951.963-6.369 4.954-5.406 8.905a7.37 7.37 0 007.156 5.622c.58 0 1.17-.059 1.76-.206 3.951-.972 6.38-4.964 5.406-8.915a7.367 7.367 0 00-8.916-5.406zM189.948 146.358c.58 0 1.169-.069 1.759-.217 3.951-.963 6.369-4.954 5.406-8.905a7.366 7.366 0 00-8.906-5.416 7.382 7.382 0 00-5.416 8.915 7.38 7.38 0 007.157 5.623zM169.218 151.43c.58 0 1.169-.069 1.76-.217 3.951-.963 6.379-4.954 5.416-8.915a7.382 7.382 0 00-8.916-5.406c-3.962.963-6.38 4.954-5.416 8.915a7.379 7.379 0 007.156 5.623zM208.928 126.758a7.366 7.366 0 00-5.406 8.916 7.387 7.387 0 007.146 5.622c.58 0 1.169-.079 1.759-.216 3.961-.964 6.379-4.954 5.416-8.916-.964-3.951-4.963-6.379-8.915-5.406zM155.869 149.12a7.428 7.428 0 00-2.153-5.209 7.422 7.422 0 00-5.219-2.163 7.393 7.393 0 00-5.209 2.163 7.399 7.399 0 00-2.163 5.209c0 1.936.786 3.843 2.163 5.209a7.397 7.397 0 005.209 2.163 7.418 7.418 0 005.219-2.163 7.428 7.428 0 002.153-5.209z"/></svg>